<?xml version="1.0" encoding="utf-8"?>
<!-- Generator: Adobe Illustrator 15.1.0, SVG Export Plug-In . SVG Version: 6.00 Build 0)  -->
<!DOCTYPE svg PUBLIC "-//W3C//DTD SVG 1.1//EN" "http://www.w3.org/Graphics/SVG/1.1/DTD/svg11.dtd">
<svg version="1.1" id="Capa_1" xmlns="http://www.w3.org/2000/svg" xmlns:xlink="http://www.w3.org/1999/xlink" x="0px" y="0px"
	 width="395.27px" height="71.622px" viewBox="0 0 395.27 71.622" enable-background="new 0 0 395.27 71.622" xml:space="preserve">
<g>
	<path fill="#727272" d="M36.156,27.834h3.131V60.02h-3.361L15.989,32.761V60.02h-3.177V27.834h3.361l19.983,27.259V27.834z"/>
	<path fill="#727272" d="M80.796,29.746c2.563,1.458,4.597,3.43,6.101,5.917c1.503,2.486,2.256,5.219,2.256,8.196
		c0,2.978-0.753,5.725-2.256,8.242c-1.504,2.518-3.538,4.513-6.101,5.986c-2.563,1.474-5.38,2.21-8.449,2.21
		c-3.07,0-5.887-0.737-8.449-2.21c-2.563-1.473-4.597-3.468-6.101-5.986c-1.504-2.517-2.256-5.264-2.256-8.242
		c0-2.977,0.751-5.71,2.256-8.196c1.504-2.486,3.538-4.458,6.101-5.917c2.562-1.458,5.379-2.188,8.449-2.188
		C75.417,27.558,78.233,28.288,80.796,29.746z M65.579,32.209c-2.088,1.197-3.746,2.824-4.973,4.881
		c-1.229,2.057-1.842,4.313-1.842,6.769c0,2.456,0.613,4.728,1.842,6.814c1.227,2.088,2.885,3.738,4.973,4.95
		c2.087,1.213,4.358,1.819,6.814,1.819c2.425,0,4.674-0.605,6.746-1.819c2.072-1.212,3.722-2.862,4.95-4.95
		c1.227-2.087,1.842-4.358,1.842-6.814c0-2.456-0.615-4.712-1.842-6.769c-1.228-2.057-2.878-3.684-4.95-4.881
		c-2.072-1.197-4.321-1.796-6.746-1.796C69.937,30.413,67.666,31.012,65.579,32.209z"/>
	<path fill="#727272" d="M100.205,27.834h3.407l11.465,28.686l11.419-28.686h3.361L116.643,60.02h-3.315L100.205,27.834z"/>
	<path fill="#727272" d="M144.454,27.834h21.549v2.855h-18.372v11.511h16.438v2.854h-16.438v12.11h18.97v2.855h-22.147V27.834z"/>
	<path fill="#727272" d="M204.933,29.953c2.533,1.412,4.527,3.354,5.986,5.825c1.457,2.471,2.187,5.196,2.187,8.173
		c0,2.978-0.729,5.695-2.187,8.15c-1.459,2.457-3.462,4.39-6.01,5.802c-2.548,1.413-5.372,2.118-8.472,2.118h-12.847V27.834h12.938
		C199.599,27.834,202.401,28.541,204.933,29.953z M203.298,55.416c2.026-1.166,3.63-2.755,4.812-4.766
		c1.181-2.01,1.771-4.243,1.771-6.7c0-2.456-0.598-4.696-1.795-6.723c-1.197-2.026-2.816-3.622-4.857-4.789
		c-2.043-1.166-4.291-1.75-6.746-1.75h-9.715v26.476h9.854C199.046,57.165,201.273,56.583,203.298,55.416z"/>
	<path fill="#727272" d="M252.567,60.02l-3.821-8.564h-17.866l-3.775,8.564h-3.407l14.504-32.186h3.315L256.02,60.02H252.567z
		 M232.123,48.601h15.379l-7.735-17.405L232.123,48.601z"/>
	<path fill="#727272" d="M291.866,29.953c2.532,1.412,4.527,3.354,5.985,5.825c1.458,2.471,2.188,5.196,2.188,8.173
		c0,2.978-0.729,5.695-2.188,8.15c-1.458,2.457-3.461,4.39-6.008,5.802c-2.549,1.413-5.373,2.118-8.473,2.118h-12.847V27.834h12.938
		C286.532,27.834,289.333,28.541,291.866,29.953z M290.231,55.416c2.026-1.166,3.63-2.755,4.812-4.766
		c1.182-2.01,1.773-4.243,1.773-6.7c0-2.456-0.6-4.696-1.796-6.723c-1.197-2.026-2.817-3.622-4.858-4.789
		c-2.041-1.166-4.289-1.75-6.745-1.75h-9.716v26.476h9.854C285.979,57.165,288.205,56.583,290.231,55.416z"/>
	<path fill="#727272" d="M316.247,27.834h21.549v2.855h-18.372v11.511h16.438v2.854h-16.438v12.11h18.971v2.855h-22.147V27.834z"/>
	<path fill="#727272" d="M368.921,31.173c-1.564-0.445-3.039-0.667-4.42-0.667c-2.211,0-3.982,0.437-5.318,1.312
		s-2.004,2.065-2.004,3.568c0,1.32,0.369,2.395,1.105,3.223c0.736,0.829,1.643,1.481,2.717,1.957
		c1.074,0.477,2.549,1.006,4.42,1.589c2.18,0.645,3.938,1.282,5.273,1.911c1.334,0.629,2.471,1.542,3.406,2.74
		s1.404,2.778,1.404,4.743c0,1.719-0.482,3.239-1.449,4.558c-0.967,1.32-2.326,2.341-4.076,3.062
		c-1.75,0.722-3.76,1.083-6.031,1.083c-2.24,0-4.428-0.445-6.561-1.335c-2.135-0.89-3.969-2.072-5.504-3.545l1.475-2.625
		c1.441,1.412,3.115,2.517,5.018,3.315c1.904,0.799,3.777,1.197,5.619,1.197c2.455,0,4.404-0.499,5.848-1.497
		c1.441-0.997,2.164-2.34,2.164-4.029c0-1.351-0.369-2.456-1.105-3.315c-0.736-0.859-1.643-1.52-2.717-1.98
		s-2.578-0.997-4.512-1.611c-2.182-0.675-3.93-1.312-5.25-1.911c-1.32-0.599-2.441-1.489-3.361-2.671
		c-0.922-1.181-1.381-2.724-1.381-4.627c0-1.627,0.459-3.054,1.381-4.282c0.92-1.228,2.211-2.171,3.867-2.832
		c1.658-0.66,3.576-0.99,5.756-0.99c1.75,0,3.508,0.261,5.273,0.783c1.764,0.522,3.322,1.213,4.672,2.072l-1.381,2.716
		C371.929,32.255,370.488,31.618,368.921,31.173z"/>
</g>
<g>
	<path fill="#727272" d="M77.196,7.076h1.207v12.408h-1.296L69.42,8.975v10.509h-1.225V7.076h1.296l7.704,10.508V7.076z"/>
	<path fill="#727272" d="M91.804,10.741c0.71,0.396,1.267,0.95,1.669,1.66s0.604,1.515,0.604,2.414c0,0.911-0.201,1.725-0.604,2.441
		c-0.402,0.716-0.959,1.272-1.669,1.668s-1.515,0.595-2.414,0.595s-1.704-0.198-2.414-0.595s-1.267-0.953-1.668-1.668
		c-0.403-0.716-0.604-1.53-0.604-2.441c0-0.899,0.2-1.704,0.604-2.414c0.401-0.71,0.958-1.263,1.668-1.66s1.515-0.595,2.414-0.595
		S91.094,10.345,91.804,10.741z M87.58,11.638c-0.532,0.308-0.946,0.739-1.242,1.295c-0.296,0.557-0.444,1.189-0.444,1.899
		c0,0.722,0.148,1.361,0.444,1.917c0.296,0.557,0.71,0.988,1.242,1.296c0.533,0.308,1.137,0.462,1.811,0.462
		c0.675,0,1.278-0.154,1.811-0.462c0.533-0.308,0.947-0.739,1.243-1.296c0.295-0.556,0.443-1.195,0.443-1.917
		c0-0.71-0.148-1.343-0.443-1.899c-0.296-0.556-0.71-0.988-1.243-1.295c-0.532-0.308-1.136-0.462-1.811-0.462
		C88.716,11.176,88.113,11.33,87.58,11.638z"/>
	<path fill="#727272" d="M112.201,11.309c-0.438-0.124-0.87-0.187-1.296-0.187c-0.592,0-1.068,0.116-1.429,0.346
		c-0.361,0.231-0.542,0.577-0.542,1.039c0,0.319,0.098,0.58,0.293,0.781c0.195,0.202,0.438,0.364,0.728,0.488
		c0.29,0.125,0.695,0.264,1.216,0.417c0.64,0.189,1.16,0.375,1.562,0.559s0.745,0.45,1.029,0.799s0.427,0.808,0.427,1.375
		c0,0.84-0.32,1.482-0.959,1.926c-0.639,0.444-1.438,0.666-2.396,0.666c-0.675,0-1.325-0.112-1.952-0.337
		c-0.628-0.225-1.154-0.544-1.58-0.958l0.479-0.852c0.401,0.367,0.878,0.657,1.429,0.87c0.55,0.213,1.109,0.32,1.678,0.32
		c0.627,0,1.139-0.13,1.535-0.391s0.595-0.639,0.595-1.136c0-0.343-0.101-0.624-0.302-0.843c-0.201-0.219-0.453-0.39-0.755-0.515
		c-0.302-0.124-0.719-0.269-1.251-0.435c-0.628-0.189-1.136-0.373-1.526-0.55c-0.391-0.177-0.723-0.435-0.994-0.772
		c-0.272-0.337-0.408-0.778-0.408-1.322c0-0.817,0.304-1.432,0.914-1.846c0.609-0.414,1.369-0.622,2.28-0.622
		c0.533,0,1.048,0.071,1.545,0.213s0.94,0.337,1.331,0.585l-0.461,0.905C113.035,11.608,112.638,11.433,112.201,11.309z"/>
	<path fill="#727272" d="M127.022,11.522c0.757,0.917,1.106,2.151,1.048,3.701h-7.758c0.083,0.994,0.45,1.796,1.101,2.405
		c0.65,0.61,1.456,0.914,2.414,0.914c0.592,0,1.143-0.106,1.651-0.319s0.946-0.515,1.313-0.905l0.675,0.674
		c-0.45,0.485-0.992,0.861-1.625,1.127c-0.633,0.266-1.328,0.399-2.085,0.399c-0.9,0-1.698-0.198-2.396-0.595
		s-1.246-0.95-1.643-1.66s-0.595-1.521-0.595-2.432c0-0.899,0.198-1.707,0.595-2.423c0.396-0.716,0.944-1.272,1.643-1.668
		s1.484-0.595,2.36-0.595C125.164,10.146,126.264,10.605,127.022,11.522z M127.004,14.3c-0.06-0.97-0.382-1.743-0.968-2.317
		c-0.586-0.574-1.352-0.861-2.299-0.861c-0.935,0-1.716,0.29-2.343,0.87c-0.627,0.58-0.988,1.349-1.083,2.308H127.004z"/>
	<path fill="#727272" d="M150.125,11.114c0.633,0.645,0.95,1.53,0.95,2.654v5.716h-1.207v-5.432c0-0.876-0.243-1.562-0.729-2.059
		s-1.159-0.746-2.023-0.746c-1.029,0.012-1.837,0.352-2.423,1.021c-0.586,0.669-0.879,1.553-0.879,2.654v4.562h-1.189V6.312h1.189
		v6.071c0.627-1.467,1.858-2.212,3.692-2.236C148.619,10.146,149.492,10.469,150.125,11.114z"/>
	<path fill="#727272" d="M163.642,19.483l-0.018-1.562c-0.367,0.544-0.847,0.95-1.438,1.216s-1.271,0.399-2.041,0.399
		c-0.627,0-1.181-0.121-1.66-0.364c-0.479-0.243-0.849-0.577-1.109-1.003c-0.26-0.426-0.391-0.905-0.391-1.438
		c0-0.805,0.312-1.438,0.933-1.899s1.476-0.692,2.564-0.692h3.124v-0.71c0-0.733-0.219-1.301-0.656-1.704
		c-0.438-0.402-1.077-0.604-1.917-0.604c-0.994,0-1.994,0.373-3,1.119l-0.532-0.817c0.627-0.438,1.225-0.76,1.792-0.967
		c0.568-0.207,1.219-0.311,1.953-0.311c1.124,0,1.994,0.281,2.609,0.843s0.929,1.34,0.94,2.334l0.019,6.16H163.642z M162.461,17.966
		c0.574-0.385,0.961-0.926,1.163-1.625v-1.278h-3c-0.816,0-1.438,0.136-1.864,0.408c-0.426,0.272-0.639,0.681-0.639,1.225
		c0,0.557,0.204,1.003,0.612,1.34s0.949,0.506,1.624,0.506C161.186,18.542,161.887,18.351,162.461,17.966z"/>
	<path fill="#727272" d="M179.023,11.114c0.633,0.645,0.949,1.53,0.949,2.654v5.716h-1.207v-5.432c0-0.876-0.242-1.562-0.728-2.059
		s-1.16-0.746-2.023-0.746c-0.959,0.012-1.726,0.308-2.299,0.887c-0.574,0.58-0.902,1.361-0.985,2.343v5.006h-1.189v-9.301h1.189
		v2.166c0.319-0.722,0.79-1.266,1.411-1.633c0.621-0.367,1.376-0.556,2.264-0.568C177.516,10.146,178.389,10.469,179.023,11.114z"/>
	<path fill="#727272" d="M202.053,11.522c0.758,0.917,1.107,2.151,1.049,3.701h-7.758c0.083,0.994,0.45,1.796,1.101,2.405
		c0.65,0.61,1.456,0.914,2.414,0.914c0.591,0,1.142-0.106,1.651-0.319c0.508-0.213,0.945-0.515,1.312-0.905l0.676,0.674
		c-0.451,0.485-0.992,0.861-1.625,1.127c-0.633,0.266-1.328,0.399-2.086,0.399c-0.899,0-1.697-0.198-2.396-0.595
		s-1.246-0.95-1.643-1.66s-0.595-1.521-0.595-2.432c0-0.899,0.198-1.707,0.595-2.423c0.396-0.716,0.944-1.272,1.643-1.668
		s1.484-0.595,2.36-0.595C200.196,10.146,201.297,10.605,202.053,11.522z M202.036,14.3c-0.059-0.97-0.381-1.743-0.967-2.317
		c-0.586-0.574-1.352-0.861-2.299-0.861c-0.935,0-1.716,0.29-2.343,0.87c-0.627,0.58-0.988,1.349-1.083,2.308H202.036z"/>
	<path fill="#727272" d="M216.619,11.114c0.633,0.645,0.949,1.53,0.949,2.654v5.716h-1.207v-5.432c0-0.876-0.242-1.562-0.728-2.059
		s-1.16-0.746-2.023-0.746c-0.959,0.012-1.725,0.308-2.299,0.887c-0.574,0.58-0.902,1.361-0.985,2.343v5.006h-1.189v-9.301h1.189
		v2.166c0.319-0.722,0.79-1.266,1.411-1.633c0.621-0.367,1.376-0.556,2.264-0.568C215.113,10.146,215.986,10.469,216.619,11.114z"/>
	<path fill="#727272" d="M227.988,11.194c-0.663,0-1.26,0.154-1.793,0.461c-0.532,0.308-0.946,0.737-1.242,1.287
		s-0.444,1.18-0.444,1.89s0.148,1.343,0.444,1.899c0.296,0.557,0.71,0.988,1.242,1.296c0.533,0.308,1.13,0.461,1.793,0.461
		c0.604,0,1.157-0.106,1.66-0.319s0.926-0.521,1.269-0.923l0.675,0.71c-0.414,0.497-0.935,0.881-1.562,1.154
		c-0.628,0.272-1.326,0.408-2.095,0.408c-0.888,0-1.681-0.198-2.379-0.595s-1.246-0.953-1.642-1.668
		c-0.397-0.716-0.595-1.524-0.595-2.423c0-0.899,0.197-1.707,0.595-2.423c0.396-0.716,0.943-1.272,1.642-1.668
		s1.491-0.595,2.379-0.595c0.722,0,1.381,0.118,1.979,0.355s1.109,0.568,1.536,0.994l-0.675,0.799
		C230.017,11.561,229.088,11.194,227.988,11.194z"/>
	<path fill="#727272" d="M243.485,10.741c0.71,0.396,1.266,0.95,1.668,1.66s0.604,1.515,0.604,2.414
		c0,0.911-0.201,1.725-0.604,2.441c-0.402,0.716-0.958,1.272-1.668,1.668s-1.516,0.595-2.414,0.595c-0.9,0-1.704-0.198-2.415-0.595
		c-0.71-0.396-1.266-0.953-1.668-1.668c-0.402-0.716-0.604-1.53-0.604-2.441c0-0.899,0.201-1.704,0.604-2.414
		s0.958-1.263,1.668-1.66c0.711-0.396,1.515-0.595,2.415-0.595C241.969,10.146,242.775,10.345,243.485,10.741z M239.259,11.638
		c-0.532,0.308-0.946,0.739-1.242,1.295c-0.296,0.557-0.443,1.189-0.443,1.899c0,0.722,0.147,1.361,0.443,1.917
		c0.296,0.557,0.71,0.988,1.242,1.296c0.533,0.308,1.137,0.462,1.812,0.462c0.674,0,1.277-0.154,1.811-0.462
		c0.532-0.308,0.946-0.739,1.242-1.296c0.296-0.556,0.443-1.195,0.443-1.917c0-0.71-0.147-1.343-0.443-1.899
		c-0.296-0.556-0.71-0.988-1.242-1.295c-0.533-0.308-1.137-0.462-1.811-0.462C240.396,11.176,239.792,11.33,239.259,11.638z"/>
	<path fill="#727272" d="M259.31,11.114c0.633,0.645,0.949,1.53,0.949,2.654v5.716h-1.207v-5.432c0-0.876-0.242-1.562-0.728-2.059
		s-1.16-0.746-2.023-0.746c-0.959,0.012-1.725,0.308-2.299,0.887c-0.574,0.58-0.902,1.361-0.985,2.343v5.006h-1.189v-9.301h1.189
		v2.166c0.319-0.722,0.79-1.266,1.411-1.633c0.621-0.367,1.376-0.556,2.264-0.568C257.804,10.146,258.677,10.469,259.31,11.114z"/>
	<path fill="#727272" d="M271.673,18.844c-0.639,0.438-1.325,0.668-2.059,0.692c-0.711,0-1.272-0.219-1.687-0.657
		c-0.415-0.438-0.621-1.094-0.621-1.97v-5.539h-1.332l-0.018-0.923h1.35V8.052h1.188v2.396l3.018-0.018v0.941h-3.018v5.343
		c0,1.148,0.427,1.722,1.278,1.722c0.474,0,0.988-0.166,1.545-0.497L271.673,18.844z"/>
	<path fill="#727272" d="M279.882,10.723c0.574-0.373,1.264-0.565,2.068-0.577v1.118c-0.982-0.012-1.772,0.275-2.37,0.861
		c-0.598,0.586-0.938,1.382-1.021,2.388v4.97h-1.189v-9.301h1.189v2.166C278.868,11.638,279.308,11.096,279.882,10.723z"/>
	<path fill="#727272" d="M292.797,19.483l-0.019-1.562c-0.366,0.544-0.846,0.95-1.438,1.216s-1.272,0.399-2.041,0.399
		c-0.628,0-1.181-0.121-1.66-0.364s-0.849-0.577-1.109-1.003c-0.261-0.426-0.391-0.905-0.391-1.438c0-0.805,0.311-1.438,0.932-1.899
		c0.622-0.461,1.477-0.692,2.565-0.692h3.124v-0.71c0-0.733-0.219-1.301-0.656-1.704c-0.438-0.402-1.077-0.604-1.917-0.604
		c-0.994,0-1.995,0.373-3,1.119l-0.533-0.817c0.627-0.438,1.226-0.76,1.793-0.967c0.568-0.207,1.219-0.311,1.953-0.311
		c1.124,0,1.993,0.281,2.609,0.843c0.615,0.562,0.929,1.34,0.94,2.334l0.018,6.16H292.797z M291.617,17.966
		c0.573-0.385,0.961-0.926,1.162-1.625v-1.278h-3c-0.816,0-1.438,0.136-1.863,0.408c-0.426,0.272-0.639,0.681-0.639,1.225
		c0,0.557,0.204,1.003,0.612,1.34s0.949,0.506,1.624,0.506C290.341,18.542,291.042,18.351,291.617,17.966z"/>
	<path fill="#727272" d="M309.164,6.312v13.171h-1.189v-2.13c-0.355,0.698-0.853,1.24-1.491,1.624
		c-0.639,0.385-1.385,0.577-2.236,0.577c-0.876,0-1.657-0.201-2.344-0.604c-0.687-0.402-1.219-0.964-1.598-1.686
		s-0.567-1.539-0.567-2.45s0.192-1.722,0.577-2.432c0.384-0.71,0.916-1.266,1.597-1.668s1.453-0.604,2.317-0.604
		c0.852,0,1.6,0.195,2.245,0.586c0.645,0.391,1.145,0.935,1.5,1.633V6.312H309.164z M306.27,18.055
		c0.532-0.313,0.949-0.749,1.251-1.305c0.302-0.556,0.453-1.189,0.453-1.899c0-0.71-0.151-1.346-0.453-1.908
		s-0.719-1.003-1.251-1.323c-0.532-0.319-1.136-0.479-1.811-0.479s-1.278,0.16-1.811,0.479c-0.532,0.32-0.953,0.761-1.261,1.323
		s-0.461,1.198-0.461,1.908c0,0.71,0.15,1.343,0.452,1.899c0.302,0.557,0.722,0.992,1.261,1.305c0.538,0.313,1.145,0.47,1.819,0.47
		S305.738,18.368,306.27,18.055z"/>
	<path fill="#727272" d="M322.423,10.741c0.71,0.396,1.266,0.95,1.668,1.66s0.604,1.515,0.604,2.414
		c0,0.911-0.201,1.725-0.604,2.441c-0.402,0.716-0.958,1.272-1.668,1.668s-1.516,0.595-2.414,0.595c-0.9,0-1.704-0.198-2.415-0.595
		c-0.71-0.396-1.266-0.953-1.668-1.668c-0.402-0.716-0.604-1.53-0.604-2.441c0-0.899,0.201-1.704,0.604-2.414
		s0.958-1.263,1.668-1.66c0.711-0.396,1.515-0.595,2.415-0.595C320.908,10.146,321.713,10.345,322.423,10.741z M318.198,11.638
		c-0.532,0.308-0.946,0.739-1.242,1.295c-0.296,0.557-0.443,1.189-0.443,1.899c0,0.722,0.147,1.361,0.443,1.917
		c0.296,0.557,0.71,0.988,1.242,1.296c0.533,0.308,1.137,0.462,1.812,0.462c0.674,0,1.277-0.154,1.811-0.462
		c0.532-0.308,0.946-0.739,1.242-1.296c0.296-0.556,0.443-1.195,0.443-1.917c0-0.71-0.147-1.343-0.443-1.899
		c-0.296-0.556-0.71-0.988-1.242-1.295c-0.533-0.308-1.137-0.462-1.811-0.462C319.334,11.176,318.731,11.33,318.198,11.638z"/>
</g>
</svg>
